<?xml version="1.0" standalone="no"?>
<!DOCTYPE svg PUBLIC "-//W3C//DTD SVG 20010904//EN"
 "http://www.w3.org/TR/2001/REC-SVG-20010904/DTD/svg10.dtd">
<svg version="1.0" xmlns="http://www.w3.org/2000/svg"
 width="128.000000pt" height="128.000000pt" viewBox="0 0 128.000000 128.000000"
 preserveAspectRatio="xMidYMid meet">
<metadata>
Created by potrace 1.15, written by Peter Selinger 2001-2017
</metadata>
<g transform="translate(0.000000,128.000000) scale(0.100000,-0.100000)"
fill="#000000" stroke="none">
<path d="M0 640 l0 -640 640 0 640 0 0 640 0 640 -640 0 -640 0 0 -640z m881
486 l234 -104 0 -233 c0 -218 -2 -239 -23 -304 -55 -165 -184 -319 -325 -389
-103 -51 -128 -53 -207 -22 -135 54 -265 178 -334 320 -58 119 -67 182 -64
420 l3 208 230 103 c127 57 235 104 241 104 6 1 117 -46 245 -103z"/>
<path d="M450 1020 l-175 -79 0 -173 c0 -195 13 -250 81 -364 67 -112 215
-234 284 -234 69 0 217 122 284 234 68 114 81 169 81 364 l0 173 -179 79 c-98
44 -184 80 -190 79 -6 0 -90 -36 -186 -79z m259 -125 c16 -8 40 -28 55 -45 22
-26 26 -41 26 -91 0 -34 4 -59 10 -59 6 0 22 -11 35 -25 24 -23 25 -30 25
-138 0 -100 -3 -117 -21 -141 l-20 -26 -179 0 -179 0 -20 26 c-18 24 -21 41
-21 141 0 108 1 115 25 138 13 14 29 25 35 25 6 0 10 25 10 59 0 65 19 98 74
132 37 23 106 25 145 4z"/>
<path d="M603 828 c-24 -12 -43 -55 -43 -99 l0 -29 80 0 80 0 0 29 c0 46 -19
87 -46 100 -30 13 -42 13 -71 -1z"/>
</g>
</svg>
